<svg width="14" height="14" viewBox="0 0 14 14" fill="none" xmlns="http://www.w3.org/2000/svg">
<path d="M6.5 5.4C6.5 4.55992 6.5 4.13988 6.6635 3.81902C6.8073 3.53677 7.03675 3.3073 7.319 3.16349C7.6399 3 8.0599 3 8.9 3H9M9 3C9 3.55229 9.4477 4 10 4C10.5523 4 11 3.55229 11 3C11 2.44771 10.5523 2 10 2C9.4477 2 9 2.44771 9 3ZM2 7H5.5M5.5 7C5.5 7.5523 5.9477 8 6.5 8C7.0523 8 7.5 7.5523 7.5 7C7.5 6.4477 7.0523 6 6.5 6C5.9477 6 5.5 6.4477 5.5 7Z" stroke="white" stroke-width="1.5" stroke-linecap="round" stroke-linejoin="round"/>
<path d="M9 11H8.9C8.0599 11 7.6399 11 7.319 10.8365C7.03675 10.6927 6.8073 10.4633 6.6635 10.181C6.5 9.8601 6.5 9.4401 6.5 8.6M9 11C9 11.5523 9.4477 12 10 12C10.5523 12 11 11.5523 11 11C11 10.4477 10.5523 10 10 10C9.4477 10 9 10.4477 9 11Z" stroke="white" stroke-opacity="0.5" stroke-width="1.5" stroke-linecap="round" stroke-linejoin="round"/>
</svg>
