<svg width="14" height="14" viewBox="0 0 14 14" fill="none" xmlns="http://www.w3.org/2000/svg">
<rect x="1.125" y="2" width="6" height="10" rx="1.5" fill="white"/>
<path opacity="0.5" fill-rule="evenodd" clip-rule="evenodd" d="M9.59467 4.46967C9.88756 4.17678 10.3624 4.17678 10.6553 4.46967L12.6553 6.46967C12.7272 6.54158 12.7815 6.62445 12.8181 6.71291C12.8525 6.79582 12.8724 6.88622 12.8748 6.98099C12.8749 6.98731 12.875 6.99364 12.875 7C12.875 7.10169 12.8548 7.19866 12.8181 7.28709C12.7818 7.37489 12.728 7.4572 12.6569 7.52874C12.6569 7.52875 12.6569 7.52877 12.6569 7.52879C12.6564 7.5293 12.6558 7.52982 12.6553 7.53033L12.6537 7.53192L10.6553 9.53033C10.3624 9.82322 9.88756 9.82322 9.59467 9.53033C9.30178 9.23744 9.30178 8.76256 9.59467 8.46967L10.3143 7.75H8.125C7.71079 7.75 7.375 7.41421 7.375 7C7.375 6.58579 7.71079 6.25 8.125 6.25H10.3143L9.59467 5.53033C9.30178 5.23744 9.30178 4.76256 9.59467 4.46967Z" fill="white"/>
</svg>
