<svg width="14" height="14" viewBox="0 0 14 14" fill="none" xmlns="http://www.w3.org/2000/svg">
<path d="M3.85 1.16667H10.15C10.4767 1.16667 10.6401 1.16667 10.7648 1.23024C10.8746 1.28617 10.9638 1.37541 11.0198 1.48517C11.0833 1.60995 11.0833 1.7733 11.0833 2.1V3.31014C11.0833 3.59549 11.0833 3.73817 11.0511 3.87244C11.0225 3.99148 10.9754 4.10528 10.9114 4.20967C10.8393 4.3274 10.7383 4.42829 10.5366 4.63007L8.82665 6.34002C8.59565 6.57102 8.48009 6.68658 8.43687 6.81975C8.39877 6.93688 8.39877 7.06312 8.43687 7.18025C8.48009 7.31343 8.59565 7.42898 8.82665 7.65998L10.5366 9.36991C10.7383 9.57168 10.8393 9.6726 10.9114 9.79032C10.9754 9.89473 11.0225 10.0085 11.0511 10.1275C11.0833 10.2618 11.0833 10.4045 11.0833 10.6899V11.9C11.0833 12.2267 11.0833 12.3901 11.0198 12.5148C10.9638 12.6246 10.8746 12.7138 10.7648 12.7698C10.6401 12.8333 10.4767 12.8333 10.15 12.8333H3.85C3.5233 12.8333 3.35995 12.8333 3.23517 12.7698C3.12541 12.7138 3.03617 12.6246 2.98024 12.5148C2.91667 12.3901 2.91667 12.2267 2.91667 11.9V10.6899C2.91667 10.4045 2.91667 10.2618 2.9489 10.1275C2.97748 10.0085 3.02462 9.89473 3.08859 9.79032C3.16073 9.6726 3.26162 9.57168 3.4634 9.36991L5.17337 7.65998C5.40438 7.42898 5.51988 7.31343 5.56316 7.18025C5.60122 7.06312 5.60122 6.93688 5.56316 6.81975C5.51988 6.68658 5.40437 6.57102 5.17337 6.34002L3.4634 4.63007C3.26163 4.42829 3.16073 4.3274 3.08859 4.20967C3.02462 4.10528 2.97748 3.99148 2.9489 3.87244C2.91667 3.73817 2.91667 3.59549 2.91667 3.31014V2.1C2.91667 1.7733 2.91667 1.60995 2.98024 1.48517C3.03617 1.37541 3.12541 1.28617 3.23517 1.23024C3.35995 1.16667 3.5233 1.16667 3.85 1.16667Z" stroke="white" stroke-width="1.5" stroke-linecap="round" stroke-linejoin="round"/>
<path opacity="0.5" d="M5.25 10.7917H8.75" stroke="white" stroke-width="1.5" stroke-linecap="round" stroke-linejoin="round"/>
</svg>
