<svg width="247" height="253" viewBox="0 0 247 253" fill="none" xmlns="http://www.w3.org/2000/svg">
<path d="M183.091 79.4782C181.716 103.424 160.845 121.574 136.475 120.017L90.044 117.051C65.674 115.495 47.0334 94.821 48.4091 70.8754C49.7848 46.9297 70.6559 28.7798 95.0259 30.3364L141.457 33.3021C165.827 34.8588 184.467 55.5325 183.091 79.4782Z" fill="#3E476B"/>
<ellipse cx="13.6048" cy="7.62137" rx="13.6048" ry="7.62137" transform="matrix(0.387267 -0.921967 0.924618 0.380896 53 69.6312)" fill="#2C3857"/>
<ellipse opacity="0.57" cx="9.30137" cy="5.21062" rx="9.30137" ry="5.21062" transform="matrix(0.387267 -0.921967 0.924618 0.380896 56.2603 65.8352)" fill="#2A2947"/>
<path d="M207.507 90.4089C228.828 127.225 216.123 174.102 179.129 195.113L144.192 214.956C107.199 235.967 59.9258 223.155 38.6049 186.339V186.339C17.284 149.524 29.9891 102.646 66.9826 81.6349L101.92 61.7919C138.913 40.7809 186.186 53.5932 207.507 90.4089V90.4089Z" fill="#3E476B"/>
<ellipse cx="78" cy="151.499" rx="30" ry="29.7095" fill="#2C3857"/>
<ellipse opacity="0.57" cx="78.0001" cy="151.499" rx="21" ry="20.7967" fill="#2A2947"/>
<ellipse cx="17.3847" cy="13.4585" rx="17.3847" ry="13.4585" transform="matrix(0.568124 -0.822943 0.82806 0.560639 164.899 160.721)" fill="#2C3857"/>
<ellipse cx="19.2083" cy="13.5635" rx="19.2083" ry="13.5635" transform="matrix(0.808235 0.58886 -0.587988 0.80887 143.95 34.6417)" fill="#2C3857"/>
<ellipse cx="12.7526" cy="9.00499" rx="12.7526" ry="9.00499" transform="matrix(0.808235 0.58886 -0.587988 0.80887 146.634 42.3215)" fill="#2B2F4E"/>
</svg>
