<svg width="289" height="290" viewBox="0 0 289 290" fill="none" xmlns="http://www.w3.org/2000/svg">
<path d="M244.482 75.9964C256.367 106.633 241.166 141.103 210.529 152.988L152.16 175.632C121.523 187.517 87.0529 172.316 75.1679 141.679C63.283 111.043 78.484 76.5725 109.12 64.6875L167.49 42.0439C198.126 30.1589 232.597 45.36 244.482 75.9964Z" fill="#3E476B"/>
<path d="M232.986 137.626C247.709 121.464 252.926 97.7627 244.482 75.9964C232.597 45.36 198.126 30.1589 167.49 42.0439L109.12 64.6875C94.9543 70.1831 84.0996 80.5076 77.6857 93.0492C83.6853 86.4629 91.2615 81.1285 100.132 77.6875L158.49 55.0439C189.126 43.1589 223.608 58.36 235.493 88.9964C241.882 105.467 240.443 123.045 232.986 137.626Z" fill="#2C3857"/>
<path d="M127.808 70.4818C129.54 74.3243 125.346 79.9641 118.44 83.0785C111.533 86.1929 104.53 85.6026 102.797 81.7601C101.064 77.9176 105.259 72.2778 112.165 69.1634C119.071 66.049 126.075 66.6393 127.808 70.4818Z" fill="#2C3857"/>
<path d="M123.904 71.281C125.089 73.9081 122.221 77.7639 117.499 79.8932C112.778 82.0225 107.989 81.6189 106.805 78.9918C105.62 76.3648 108.488 72.509 113.209 70.3797C117.931 68.2504 122.719 68.6539 123.904 71.281Z" fill="#2B2F4E"/>
<path d="M243.004 102.929C262.101 136.225 250.589 178.698 217.292 197.794L140.088 242.072C106.792 261.168 64.3193 249.656 45.2232 216.359C26.1271 183.063 37.6388 140.59 70.9352 121.494L148.139 77.2165C181.436 58.1204 223.908 69.6321 243.004 102.929Z" fill="#3E476B"/>
<path d="M127.124 180C127.124 196.569 113.693 210 97.1241 210C80.5555 210 67.1241 196.569 67.1241 180C67.1241 163.431 80.5555 150 97.1241 150C113.693 150 127.124 163.431 127.124 180Z" fill="#2C3857"/>
<path d="M118.124 180C118.124 191.598 108.722 201 97.1241 201C85.5261 201 76.1241 191.598 76.1241 180C76.1241 168.402 85.5261 159 97.1241 159C108.722 159 118.124 168.402 118.124 180Z" fill="#2B2F4E"/>
<path d="M210.154 180.656C213.916 187.093 210.2 196.265 201.855 201.141C193.511 206.017 183.696 204.751 179.935 198.314C176.173 191.876 179.889 182.705 188.234 177.829C196.578 172.953 206.393 174.219 210.154 180.656Z" fill="#2C3857"/>
<path d="M222.883 103.139C220.619 112.819 207.668 118.067 193.954 114.861C180.241 111.654 170.959 101.207 173.223 91.5272C175.486 81.8472 188.438 76.5995 202.151 79.8061C215.865 83.0128 225.146 93.4594 222.883 103.139Z" fill="#2C3857"/>
<path d="M214.815 101.346C213.312 107.773 204.714 111.257 195.609 109.128C186.505 106.999 180.342 100.063 181.845 93.6365C183.348 87.2098 191.947 83.7258 201.051 85.8548C210.156 87.9837 216.318 94.9194 214.815 101.346Z" fill="#2B2F4E"/>
</svg>
