<svg width="16" height="16" viewBox="0 0 16 16" fill="none" xmlns="http://www.w3.org/2000/svg">
<path d="M15 6H13.6505C13.58 5.801 13.5 5.6075 13.4105 5.42L14.3635 4.465C14.754 4.0745 14.754 3.4415 14.3635 3.051L12.9495 1.637C12.559 1.2465 11.926 1.2465 11.5355 1.637L10.582 2.59C10.3925 2.5 10 2.42 10 2.3495V1C10 0.4475 9.5525 0 9 0H6.9995C6.447 0 6 0.4475 6 1V2.3495C6 2.42 5.6075 2.5 5.419 2.59L4.4645 1.6365C4.074 1.246 3.441 1.246 3.0505 1.6365L1.636 3.051C1.2455 3.4415 1.2455 4.0745 1.636 4.465L2.589 5.42C2.499 5.6075 2.419 5.801 2.348 6H0.9995C0.447 6 0 6.4475 0 7V9C0 9.5525 0.447 10 0.9995 10H2.348C2.4195 10.199 2.4995 10.3925 2.589 10.582L1.636 11.535C1.2455 11.9255 1.2455 12.5585 1.636 12.949L3.05 14.363C3.4405 14.7535 4.0735 14.7535 4.464 14.363L5.4175 13.41C5.6075 13.5 6 13.582 6 13.6525V15C6 15.5525 6.447 16 6.9995 16H9C9.5525 16 10 15.5525 10 15V13.6525C10 13.582 10.3925 13.5 10.582 13.4105L11.535 14.3635C11.9255 14.754 12.5585 14.754 12.949 14.3635L14.363 12.9495C14.7535 12.559 14.7535 11.926 14.363 11.5355L13.41 10.5825C13.5 10.393 13.58 10.1995 13.65 10.0005H15C15.5525 10.0005 16 9.553 16 9.0005V7.0005C16 6.4475 15.5525 6 15 6ZM7.9995 10C6.895 10 5.9995 9.1055 5.9995 8C5.9995 6.8965 6.895 6 7.9995 6C9.1035 6 10 6.8965 10 8C10 9.1055 9.1035 10 7.9995 10Z" fill="#56A1C9"/>
</svg>
