<svg width="19" height="16" viewBox="0 0 19 16" fill="none" xmlns="http://www.w3.org/2000/svg">
<path fill-rule="evenodd" clip-rule="evenodd" d="M9.9437 1.93334C10.39 1.48703 11.1136 1.48703 11.5599 1.93334L16.8199 7.19327C17.2662 7.63956 17.2662 8.36322 16.8199 8.8095L11.5599 14.0695C11.1136 14.5158 10.39 14.5158 9.9437 14.0695L4.68377 8.8095C4.23746 8.36322 4.23746 7.63956 4.68377 7.19327L9.9437 1.93334ZM10.7518 4.35771L7.10814 8.00139L10.7518 11.6451L14.3955 8.00139L10.7518 4.35771Z" fill="#71B352"/>
<path fill-rule="evenodd" clip-rule="evenodd" d="M0.464706 8.00001C0.464706 7.36881 0.976387 6.85715 1.60757 6.85715H5.95043C6.58162 6.85715 7.09329 7.36881 7.09329 8.00001C7.09329 8.63122 6.58162 9.14287 5.95043 9.14287H1.60757C0.976387 9.14287 0.464706 8.63122 0.464706 8.00001Z" fill="#71B352"/>
<path fill-rule="evenodd" clip-rule="evenodd" d="M18.4157 0.334732C18.862 0.781053 18.862 1.50467 18.4157 1.95099L14.7586 5.60814C14.3123 6.05441 13.5886 6.05441 13.1423 5.60814C12.696 5.16182 12.696 4.4382 13.1423 3.99188L16.7995 0.334732C17.2458 -0.111577 17.9694 -0.111577 18.4157 0.334732Z" fill="#71B352"/>
<path fill-rule="evenodd" clip-rule="evenodd" d="M13.1423 10.3919C13.5886 9.94562 14.3123 9.94562 14.7586 10.3919L18.4157 14.0491C18.862 14.4953 18.862 15.219 18.4157 15.6653C17.9694 16.1116 17.2458 16.1116 16.7995 15.6653L13.1423 12.0081C12.696 11.5618 12.696 10.8382 13.1423 10.3919Z" fill="#71B352"/>
</svg>
