<svg width="17" height="16" viewBox="0 0 17 16" fill="none" xmlns="http://www.w3.org/2000/svg">
<path d="M4.49788 10.0571H10.6697V13.4857C10.6697 14.8754 9.54509 16 8.15528 16H2.66917C1.27936 16 0.154709 14.8754 0.154709 13.4857V2.51429C0.154709 1.12457 1.27936 0 2.66917 0H8.15528C9.54509 0 10.6697 1.12457 10.6697 2.51429V5.94286H4.49788C3.36408 5.94286 2.44059 6.86629 2.44059 8C2.44059 9.13371 3.36408 10.0571 4.49788 10.0571ZM15.9547 7.51543L13.2116 4.77257C12.9437 4.50469 12.5094 4.50469 12.2415 4.77257C11.9736 5.04046 11.9736 5.47474 12.2415 5.74263L13.8142 7.3152H4.49788C4.11934 7.3152 3.81211 7.6224 3.81211 8.00091C3.81211 8.37943 4.11934 8.68663 4.49788 8.68663H13.8142L12.2415 10.2592C11.9736 10.5271 11.9736 10.9614 12.2415 11.2293C12.375 11.3627 12.5506 11.4304 12.7261 11.4304C12.9017 11.4304 13.0772 11.3637 13.2107 11.2293L15.9538 8.4864C16.2217 8.21851 16.2217 7.78423 15.9538 7.51634L15.9547 7.51543Z" fill="#C42E40"/>
</svg>
