<svg width="17" height="17" viewBox="0 0 17 17" fill="none" xmlns="http://www.w3.org/2000/svg">
<path d="M3.52645 9.57667L1.62169 7.6717C0.747237 6.79725 0.309708 5.6446 0.309708 4.49235C0.309708 3.34071 0.747237 2.18846 1.62148 1.31401C2.49654 0.437936 3.6492 0 4.80124 0C5.95329 0 7.10594 0.437529 7.9808 1.31238L9.79777 3.12936C10.672 4.00361 11.1093 5.15647 11.1091 6.30892C11.1102 7.46096 10.6722 8.61382 9.79737 9.48868C9.47852 9.80753 9.10013 9.84207 8.78879 9.71425C8.66971 9.66527 8.5616 9.59273 8.47259 9.50372C8.38398 9.41511 8.31103 9.307 8.26205 9.18751C8.13443 8.87618 8.16877 8.49778 8.49392 8.17304C9.00522 7.65504 9.25803 6.98198 9.25803 6.30912C9.25803 5.63057 9.00156 4.95203 8.48844 4.4389L6.65907 2.60933C6.14716 2.10473 5.4743 1.85213 4.80124 1.85213C4.1231 1.85213 3.44496 2.1092 2.92513 2.62863C2.41424 3.14542 2.16184 3.81868 2.16184 4.49235C2.16184 5.17049 2.41851 5.84903 2.93143 6.36196L4.8364 8.26672C5.16439 8.59472 5.20687 8.98022 5.08433 9.29481C5.03738 9.41654 4.96443 9.52648 4.87379 9.61752C4.78295 9.70856 4.6726 9.78192 4.55088 9.82927C4.23853 9.95059 3.85628 9.90649 3.52645 9.57667ZM13.093 6.42455L14.9977 8.32952C15.8722 9.20397 16.3097 10.3566 16.3097 11.5089C16.3097 12.6605 15.8722 13.8128 14.9979 14.6872C14.1229 15.5633 12.9702 16.0012 11.8182 16.0012C10.6661 16.0012 9.51347 15.5635 8.63862 14.6886L6.82164 12.8717C5.94658 11.9966 5.50905 10.8441 5.50905 9.6921C5.51027 8.54026 5.9478 7.38801 6.82184 6.51376C7.1409 6.19369 7.51929 6.15915 7.83062 6.28697C7.94971 6.33595 8.05782 6.40849 8.14683 6.4975C8.23543 6.58611 8.30839 6.69422 8.35736 6.81371C8.48498 7.12504 8.45064 7.50344 8.13179 7.82229C7.61846 8.33562 7.36139 9.01396 7.36139 9.6921C7.36037 10.3694 7.61724 11.0478 8.13138 11.5619L9.94836 13.3789C10.4617 13.8922 11.14 14.1491 11.8182 14.1491C12.4961 14.1491 13.1745 13.892 13.6943 13.3724C14.2052 12.8558 14.4576 12.1825 14.4576 11.5089C14.4576 10.8307 14.2009 10.1522 13.688 9.63926L11.783 7.73429C11.4552 7.4065 11.4125 7.02079 11.5351 6.70641C11.5822 6.58489 11.655 6.47474 11.7456 6.3837C11.8365 6.29266 11.9468 6.2193 12.0685 6.17195C12.3805 6.05063 12.7627 6.09432 13.093 6.42455Z" fill="#D3A155"/>
</svg>
