<svg width="17" height="16" viewBox="0 0 17 16" fill="none" xmlns="http://www.w3.org/2000/svg">
<path d="M6.31456 2.29131C6.31456 2.10146 6.38998 1.91937 6.52423 1.78513C6.65848 1.65088 6.84056 1.57546 7.03042 1.57546H15.542C15.7318 1.57546 15.9139 1.65088 16.0482 1.78513C16.1824 1.91937 16.2578 2.10146 16.2578 2.29131C16.2578 2.48117 16.1824 2.66325 16.0482 2.7975C15.9139 2.93175 15.7318 3.00717 15.542 3.00717H7.03042C6.84056 3.00717 6.65848 2.93175 6.52423 2.7975C6.38998 2.66325 6.31456 2.48117 6.31456 2.29131ZM4.43901 0.208166C4.30488 0.0748369 4.12345 0 3.93433 0C3.74521 0 3.56377 0.0748369 3.42965 0.208166L2.35586 1.28195L1.28923 0.208166C1.15147 0.091793 0.974855 0.0317048 0.794703 0.0399138C0.614551 0.0481228 0.444134 0.124024 0.317523 0.252444C0.190912 0.380865 0.117435 0.55234 0.111782 0.73259C0.106129 0.912841 0.168716 1.08858 0.287032 1.22468L1.36082 2.29131L0.287032 3.35794C0.215509 3.4249 0.158494 3.50583 0.119515 3.59572C0.0805366 3.68561 0.0604248 3.78254 0.0604248 3.88052C0.0604248 3.97849 0.0805366 4.07543 0.119515 4.16532C0.158494 4.2552 0.215509 4.33613 0.287032 4.4031C0.353921 4.46944 0.43325 4.52193 0.520468 4.55756C0.607687 4.59318 0.701079 4.61124 0.795291 4.61069C0.980604 4.60804 1.15767 4.53363 1.28923 4.4031L2.35586 3.32931L3.42965 4.4031C3.56299 4.53535 3.74295 4.6099 3.93075 4.61069C4.02496 4.61124 4.11835 4.59318 4.20557 4.55756C4.29279 4.52193 4.37212 4.46944 4.43901 4.4031C4.50611 4.33655 4.55936 4.25737 4.5957 4.17014C4.63205 4.0829 4.65076 3.98934 4.65076 3.89484C4.65076 3.80033 4.63205 3.70677 4.5957 3.61953C4.55936 3.5323 4.50611 3.45313 4.43901 3.38658L3.37238 2.29131L4.43901 1.22468C4.50611 1.15814 4.55936 1.07896 4.5957 0.991728C4.63205 0.904494 4.65076 0.810927 4.65076 0.716426C4.65076 0.621924 4.63205 0.528357 4.5957 0.441123C4.55936 0.353889 4.50611 0.274714 4.43901 0.208166ZM15.542 7.30232H7.03042C6.84056 7.30232 6.65848 7.37774 6.52423 7.51199C6.38998 7.64624 6.31456 7.82832 6.31456 8.01818C6.31456 8.20804 6.38998 8.39012 6.52423 8.52437C6.65848 8.65862 6.84056 8.73404 7.03042 8.73404H15.542C15.7318 8.73404 15.9139 8.65862 16.0482 8.52437C16.1824 8.39012 16.2578 8.20804 16.2578 8.01818C16.2578 7.82832 16.1824 7.64624 16.0482 7.51199C15.9139 7.37774 15.7318 7.30232 15.542 7.30232ZM15.542 13.0292H7.03042C6.84056 13.0292 6.65848 13.1046 6.52423 13.2389C6.38998 13.3731 6.31456 13.5552 6.31456 13.745C6.31456 13.9349 6.38998 14.117 6.52423 14.2512C6.65848 14.3855 6.84056 14.4609 7.03042 14.4609H15.542C15.7318 14.4609 15.9139 14.3855 16.0482 14.2512C16.1824 14.117 16.2578 13.9349 16.2578 13.745C16.2578 13.5552 16.1824 13.3731 16.0482 13.2389C15.9139 13.1046 15.7318 13.0292 15.542 13.0292ZM3.86632 11.5617H0.85256C0.662702 11.5617 0.480621 11.6371 0.346372 11.7713C0.212122 11.9056 0.136701 12.0877 0.136701 12.2775V15.2841C0.136701 15.474 0.212122 15.6561 0.346372 15.7903C0.480621 15.9246 0.662702 16 0.85256 16H3.86632C4.05618 16 4.23826 15.9246 4.37251 15.7903C4.50676 15.6561 4.58218 15.474 4.58218 15.2841V12.2775C4.58218 12.0877 4.50676 11.9056 4.37251 11.7713C4.23826 11.6371 4.05618 11.5617 3.86632 11.5617ZM3.86632 5.83481H0.85256C0.662702 5.83481 0.480621 5.91023 0.346372 6.04448C0.212122 6.17873 0.136701 6.36081 0.136701 6.55067V9.55728C0.136701 9.74713 0.212122 9.92921 0.346372 10.0635C0.480621 10.1977 0.662702 10.2731 0.85256 10.2731H3.86632C4.05618 10.2731 4.23826 10.1977 4.37251 10.0635C4.50676 9.92921 4.58218 9.74713 4.58218 9.55728V6.55067C4.58218 6.36081 4.50676 6.17873 4.37251 6.04448C4.23826 5.91023 4.05618 5.83481 3.86632 5.83481Z" fill="#C67C53"/>
</svg>
