<svg width="14" height="16" viewBox="0 0 14 16" fill="none" xmlns="http://www.w3.org/2000/svg">
<path d="M13.6117 1.90161C13.6132 1.92591 13.6132 1.95027 13.6117 1.97456L12.4679 9.03604L11.3941 15.6365C11.3768 15.7385 11.324 15.8311 11.2449 15.8979C11.1659 15.9647 11.0657 16.0013 10.9622 16.0012H10.8922C10.7775 15.9819 10.675 15.918 10.6072 15.8234C10.5394 15.7288 10.5118 15.6113 10.5304 15.4964L11.5663 9.10023C11.0089 8.58375 9.11225 7.12477 6.6028 8.65087C5.79831 9.16689 4.8652 9.44693 3.90952 9.45914C1.67435 9.45914 0.139505 7.84843 0.116161 7.82508C0.0713677 7.77658 0.0381253 7.71858 0.0189231 7.65542C-0.00027912 7.59225 -0.00494362 7.52556 0.00527881 7.46034L1.11994 0.369683C1.13109 0.289914 1.16432 0.214851 1.21588 0.152974C1.26745 0.0910984 1.33529 0.0448754 1.41174 0.0195277C1.49031 -0.00476471 1.57415 -0.00642636 1.65362 0.0147332C1.7331 0.0358928 1.80501 0.0790174 1.8611 0.139164C1.9574 0.241293 4.26259 2.63694 7.24475 0.816132C10.8659 -1.38985 13.4804 1.58064 13.5184 1.60398C13.5717 1.66706 13.6061 1.74395 13.6176 1.82575C13.6185 1.85118 13.6166 1.87663 13.6117 1.90161Z" fill="#C2C2C2"/>
</svg>
