<svg width="14" height="14" viewBox="0 0 14 14" fill="none" xmlns="http://www.w3.org/2000/svg">
<path d="M11.25 6.5H2.75M8.88889 2.5V4.3M5.11111 2.5V4.3M5.01667 11.5H8.98333C9.77676 11.5 10.1734 11.5 10.4765 11.3528C10.7431 11.2234 10.9598 11.0169 11.0956 10.7629C11.25 10.4741 11.25 10.0961 11.25 9.34V5.56C11.25 4.80393 11.25 4.42589 11.0956 4.13711C10.9598 3.88309 10.7431 3.67657 10.4765 3.54714C10.1734 3.4 9.77676 3.4 8.98333 3.4H5.01667C4.22326 3.4 3.82655 3.4 3.52351 3.54714C3.25695 3.67657 3.04023 3.88309 2.90441 4.13711C2.75 4.42589 2.75 4.80393 2.75 5.56V9.34C2.75 10.0961 2.75 10.4741 2.90441 10.7629C3.04023 11.0169 3.25695 11.2234 3.52351 11.3528C3.82655 11.5 4.22326 11.5 5.01667 11.5Z" stroke="white" stroke-width="1.5" stroke-linecap="round" stroke-linejoin="round"/>
</svg>
