<svg width="17" height="16" viewBox="0 0 17 16" fill="none" xmlns="http://www.w3.org/2000/svg">
<path d="M14.3192 5.70531C14.8156 5.70531 15.2179 6.10758 15.2179 6.6042C15.2179 7.10081 14.8156 7.50309 14.3192 7.50309C13.8222 7.50309 13.4199 7.10081 13.4199 6.6042C13.4199 6.10758 13.8224 5.70531 14.3192 5.70531ZM12.1883 3.81923C12.6849 3.81923 13.0872 4.2215 13.0872 4.71852C13.0872 5.21513 12.6849 5.61741 12.1883 5.61741C11.6917 5.61741 11.2894 5.21513 11.2894 4.71852C11.2896 4.2215 11.6919 3.81923 12.1883 3.81923ZM10.0572 1.93395C10.5543 1.93395 10.9565 2.33623 10.9565 2.83284C10.9565 3.32945 10.5543 3.73173 10.0572 3.73173C9.56104 3.73173 9.15876 3.32945 9.15876 2.83284C9.15876 2.33623 9.56104 1.93395 10.0572 1.93395ZM8.52598 0C7.9477 0 7.47 0.477705 7.47 1.05598V5.63933C7.47 5.68761 7.48066 5.73367 7.49715 5.77772H9.28648C10.2972 5.77772 11.1289 6.60943 11.1289 7.62055V9.36986C11.1911 9.4127 11.2653 9.43583 11.3429 9.43583H15.8507C16.4289 9.43583 16.9054 8.95933 16.9054 8.38106V1.05598C16.9054 0.477705 16.4289 0 15.8507 0H8.52598Z" fill="#6361CB"/>
<path d="M7.75481 12.2695C8.25142 12.2695 8.6537 12.6718 8.6537 13.1684C8.6537 13.665 8.25142 14.0673 7.75481 14.0673C7.2582 14.0673 6.85592 13.665 6.85592 13.1684C6.85592 12.6718 7.2582 12.2695 7.75481 12.2695ZM3.49348 12.2695C3.98969 12.2695 4.39197 12.6718 4.39197 13.1684C4.39197 13.665 3.98969 14.0673 3.49348 14.0673C2.99647 14.0673 2.59419 13.665 2.59419 13.1684C2.59419 12.6718 2.99647 12.2695 3.49348 12.2695ZM5.62394 10.3838C6.12096 10.3838 6.52324 10.7861 6.52324 11.2827C6.52324 11.7793 6.12096 12.1816 5.62394 12.1816C5.12733 12.1816 4.72505 11.7793 4.72505 11.2827C4.72505 10.7861 5.12733 10.3838 5.62394 10.3838ZM7.75481 8.49812C8.25142 8.49812 8.6537 8.9004 8.6537 9.39701C8.6537 9.89362 8.25142 10.2959 7.75481 10.2959C7.2582 10.2959 6.85592 9.89362 6.85592 9.39701C6.85592 8.9004 7.2582 8.49812 7.75481 8.49812ZM3.49348 8.49812C3.98969 8.49812 4.39197 8.9004 4.39197 9.39701C4.39197 9.89362 3.98969 10.2959 3.49348 10.2959C2.99647 10.2959 2.59419 9.89362 2.59419 9.39701C2.59419 8.9004 2.99647 8.49812 3.49348 8.49812ZM1.96181 6.56457C1.38353 6.56457 0.905426 7.04228 0.905426 7.62055V14.9452C0.905426 15.5235 1.38353 16 1.96181 16H9.28648C9.86476 16 10.3413 15.5235 10.3413 14.9452V7.62055C10.3413 7.04228 9.86476 6.56457 9.28648 6.56457H1.96181Z" fill="#6361CB"/>
</svg>
