<svg width="14" height="14" viewBox="0 0 14 14" fill="none" xmlns="http://www.w3.org/2000/svg">
<path d="M4.9 11.5001H9.1C9.9401 11.5001 10.3601 11.5001 10.681 11.3366C10.9632 11.1928 11.1927 10.9634 11.3365 10.6811C11.5 10.3602 11.5 9.9402 11.5 9.1001V4.9001C11.5 4.06002 11.5 3.63998 11.3365 3.31912C11.1927 3.03687 10.9632 2.8074 10.681 2.66359C10.3601 2.5001 9.9401 2.5001 9.1 2.5001H4.9C4.05992 2.5001 3.63988 2.5001 3.31902 2.66359C3.03677 2.8074 2.8073 3.03687 2.66349 3.31912C2.5 3.63998 2.5 4.06002 2.5 4.9001V9.1001C2.5 9.9402 2.5 10.3602 2.66349 10.6811C2.8073 10.9634 3.03677 11.1928 3.31902 11.3366C3.63988 11.5001 4.05992 11.5001 4.9 11.5001Z" stroke="white" stroke-width="1.5" stroke-linecap="round" stroke-linejoin="round"/>
<circle cx="4.8751" cy="4.75005" r="1" fill="white"/>
<circle cx="4.8751" cy="7.00005" r="1" fill="white"/>
<circle cx="4.8751" cy="9.25005" r="1" fill="white"/>
<circle cx="9.1251" cy="4.75005" r="1" fill="white"/>
<circle cx="9.1251" cy="7.00005" r="1" fill="white"/>
<circle cx="9.1251" cy="9.25005" r="1" fill="white"/>
</svg>
