<svg width="19" height="18" viewBox="0 0 19 18" fill="none" xmlns="http://www.w3.org/2000/svg">
<path d="M17.9049 9.58834C17.5763 8.89189 17.1006 8.27542 16.5109 7.78126V4.50192C16.5109 3.84517 16.25 3.21533 15.7856 2.75094C15.3212 2.28655 14.6914 2.02566 14.0346 2.02566H13.1691V1.70038C13.1691 1.46822 13.0768 1.24556 12.9127 1.08139C12.7485 0.917228 12.5258 0.825 12.2937 0.825C12.0615 0.825 11.8388 0.917228 11.6747 1.08139C11.5105 1.24556 11.4183 1.46822 11.4183 1.70038V2.00565H5.90507V1.70038C5.90507 1.46822 5.81284 1.24556 5.64867 1.08139C5.48451 0.917228 5.26185 0.825 5.02968 0.825C4.79752 0.825 4.57486 0.917228 4.41069 1.08139C4.24653 1.24556 4.1543 1.46822 4.1543 1.70038V2.00565H3.28874C3.28873 2.00565 3.28873 2.00565 3.28873 2.00565C2.96172 2.00564 2.63796 2.07039 2.33611 2.19618C2.03427 2.32197 1.76032 2.5063 1.5301 2.73852C1.29987 2.97075 1.11792 3.24628 0.994752 3.5492C0.87168 3.85189 0.809729 4.17593 0.812468 4.50267V11.7659C0.812468 12.4226 1.07336 13.0525 1.53775 13.5169C2.00214 13.9813 2.63198 14.2422 3.28873 14.2422H8.34232C8.68322 14.9215 9.16603 15.5204 9.75856 15.9979C10.3799 16.4986 11.106 16.8531 11.8831 17.035C12.6601 17.2169 13.4681 17.2216 14.2472 17.0488C15.0262 16.8759 15.7564 16.5299 16.3836 16.0365C17.0108 15.543 17.5188 14.9147 17.8701 14.1982C18.2215 13.4816 18.407 12.6952 18.413 11.8972C18.419 11.0992 18.2453 10.3101 17.9049 9.58834ZM3.28873 12.5114C3.28857 12.5114 3.28841 12.5114 3.28825 12.5114C3.09601 12.5113 2.91167 12.4349 2.77573 12.2989C2.63967 12.1629 2.56324 11.9783 2.56324 11.7859V4.50192C2.56324 4.30951 2.63967 4.12497 2.77573 3.98892C2.91178 3.85286 3.09632 3.77643 3.28873 3.77643H4.1543V3.88158C4.1543 4.11375 4.24653 4.3364 4.41069 4.50057C4.57486 4.66474 4.79752 4.75696 5.02968 4.75696C5.26185 4.75696 5.48451 4.66474 5.64867 4.50057C5.81284 4.3364 5.90507 4.11375 5.90507 3.88158V3.77643H11.4183V3.88158C11.4183 4.11375 11.5105 4.3364 11.6747 4.50057C11.8388 4.66474 12.0615 4.75696 12.2937 4.75696C12.5258 4.75696 12.7485 4.66474 12.9127 4.50057C13.0768 4.3364 13.1691 4.11375 13.1691 3.88158V3.77643H14.0346C14.227 3.77643 14.4116 3.85286 14.5476 3.98892C14.6837 4.12497 14.7601 4.30951 14.7601 4.50192V6.8162C13.9573 6.55459 13.1025 6.48754 12.2666 6.62222C11.3478 6.77026 10.4839 7.15682 9.76135 7.74327C9.03876 8.32973 8.48271 9.09554 8.14879 9.9642C7.83917 10.7696 7.73056 11.6373 7.83091 12.4922L3.28873 12.5114ZM13.1145 15.473C12.4109 15.4692 11.724 15.2572 11.1405 14.8639C10.5569 14.4705 10.1026 13.9133 9.83501 13.2622C9.56739 12.6112 9.49836 11.8956 9.63661 11.2054C9.77485 10.5153 10.1142 9.88146 10.6119 9.38375C11.1096 8.88604 11.7434 8.5467 12.4336 8.40846C13.1238 8.27021 13.8394 8.33925 14.4904 8.60686C15.1414 8.87447 15.6987 9.32871 16.0921 9.91237C16.4854 10.4959 16.6973 11.1827 16.7012 11.8864C16.7011 12.3573 16.6083 12.8236 16.4281 13.2587C16.2479 13.6939 15.9836 14.0893 15.6506 14.4224C15.3175 14.7555 14.922 15.0197 14.4868 15.2C14.0517 15.3802 13.5854 15.473 13.1145 15.473Z" fill="#56A1C9" stroke="#56A1C9" stroke-width="0.35"/>
<path d="M14.755 11.5458H13.5944V9.78481C13.5944 9.59906 13.5206 9.42092 13.3892 9.28957C13.2579 9.15822 13.0797 9.08443 12.894 9.08443C12.7082 9.08443 12.5301 9.15822 12.3987 9.28957C12.2674 9.42092 12.1936 9.59906 12.1936 9.78481V12.2462C12.1936 12.4319 12.2674 12.6101 12.3987 12.7414C12.5301 12.8728 12.7082 12.9465 12.894 12.9465H14.775C14.9608 12.9465 15.1389 12.8728 15.2703 12.7414C15.4016 12.6101 15.4754 12.4319 15.4754 12.2462C15.4754 12.0604 15.4016 11.8823 15.2703 11.7509C15.1389 11.6196 14.9608 11.5458 14.775 11.5458H14.755Z" fill="#56A1C9"/>
</svg>
