<svg width="24" height="24" viewBox="0 0 24 24" fill="none" xmlns="http://www.w3.org/2000/svg">
<path d="M12.0026 14.4961L14.4987 12L12.0026 9.50391" stroke="white" stroke-width="2" stroke-linecap="round" stroke-linejoin="round"/>
<path fill-rule="evenodd" clip-rule="evenodd" d="M10.2506 1.99902C8.04147 1.99902 6.25061 3.78988 6.25061 5.99902V7.99994C6.25061 8.5522 6.69829 8.99991 7.25055 8.99994V8.99994C7.80286 8.99997 8.25061 8.55224 8.25061 7.99994V5.99902C8.25061 4.89445 9.14604 3.99902 10.2506 3.99902H16.2506C17.3552 3.99902 18.2506 4.89445 18.2506 5.99902V18.0009C18.2506 19.1054 17.3552 20.0009 16.2506 20.0009H10.2506C9.14604 20.0009 8.25061 19.1054 8.25061 18.0009V15.9999C8.25061 15.4477 7.80293 15 7.25067 14.9999V14.9999C6.69836 14.9999 6.25061 15.4476 6.25061 15.9999V18.0009C6.25061 20.21 8.04147 22.0009 10.2506 22.0009H16.2506C18.4597 22.0009 20.2506 20.21 20.2506 18.0009V5.99902C20.2506 3.78988 18.4597 1.99902 16.2506 1.99902H10.2506Z" fill="white"/>
<path d="M13.7494 11.9999L3.74939 11.9999" stroke="white" stroke-width="2" stroke-linecap="round"/>
</svg>
