<svg width="14" height="14" viewBox="0 0 14 14" fill="none" xmlns="http://www.w3.org/2000/svg">
<g clip-path="url(#clip0_463_102)">
<path opacity="0.5" d="M6.70834 2.91667H6.96174C8.73927 2.91667 9.62809 2.91667 9.96544 3.23592C10.2571 3.51188 10.3863 3.91841 10.3076 4.31212C10.2165 4.7676 9.49089 5.28083 8.03968 6.30729L5.66867 7.98438C4.21744 9.01081 3.49183 9.52408 3.40074 9.97955C3.322 10.3732 3.45125 10.7798 3.74288 11.0557C4.08027 11.375 4.96905 11.375 6.7466 11.375H7.29167" stroke="white" stroke-width="1.5" stroke-linecap="round" stroke-linejoin="round"/>
<path d="M2.91666 4.66667C3.88316 4.66667 4.66666 3.88316 4.66666 2.91667C4.66666 1.95017 3.88316 1.16667 2.91666 1.16667C1.95017 1.16667 1.16666 1.95017 1.16666 2.91667C1.16666 3.88316 1.95017 4.66667 2.91666 4.66667Z" stroke="white" stroke-width="1.5" stroke-linecap="round" stroke-linejoin="round"/>
<path d="M11.0833 12.8333C12.0499 12.8333 12.8333 12.0499 12.8333 11.0833C12.8333 10.1168 12.0499 9.33333 11.0833 9.33333C10.1168 9.33333 9.33333 10.1168 9.33333 11.0833C9.33333 12.0499 10.1168 12.8333 11.0833 12.8333Z" stroke="white" stroke-width="1.5" stroke-linecap="round" stroke-linejoin="round"/>
</g>
<defs>
<clipPath id="clip0_463_102">
<rect width="14" height="14" fill="white"/>
</clipPath>
</defs>
</svg>
