<svg width="14" height="14" viewBox="0 0 14 14" fill="none" xmlns="http://www.w3.org/2000/svg">
<path d="M9.45 12.25H4.0433C3.6899 12.25 3.51321 12.25 3.43139 12.1801M9.45 12.25C10.4301 12.25 10.9201 12.25 11.2945 12.0593C11.6238 11.8915 11.8915 11.6238 12.0593 11.2945C12.25 10.9201 12.25 10.4301 12.25 9.45V4.55C12.25 3.56991 12.25 3.07986 12.0593 2.70552C11.8915 2.37623 11.6238 2.10852 11.2945 1.94074C10.9201 1.75 10.4301 1.75 9.45 1.75H4.55C3.56991 1.75 3.07986 1.75 2.70552 1.94074C2.37623 2.10852 2.10852 2.37623 1.94074 2.70552C1.75 3.07986 1.75 3.56991 1.75 4.55V9.45C1.75 10.4301 1.75 10.9201 1.94074 11.2945C2.10852 11.6238 2.37623 11.8915 2.70552 12.0593C3.07986 12.25 3.56991 12.25 4.55 12.25H9.45Z" stroke="white" stroke-width="1.5" stroke-linecap="round" stroke-linejoin="round"/>
<path opacity="0.5" d="M9.45 12.25H4.0433C3.6899 12.25 3.51321 12.25 3.43139 12.1801C3.3604 12.1195 3.32272 12.0285 3.33005 11.9355C3.33849 11.8282 3.46343 11.7032 3.71332 11.4533L8.67335 6.49332C8.90435 6.26232 9.01991 6.14676 9.15308 6.10353C9.27022 6.06544 9.39645 6.06544 9.51358 6.10353C9.64676 6.14676 9.76232 6.26232 9.99332 6.49332L12.25 8.75V9.45M9.45 12.25C10.4301 12.25 10.9201 12.25 11.2945 12.0593C11.6238 11.8915 11.8915 11.6238 12.0593 11.2945C12.25 10.9201 12.25 10.4301 12.25 9.45M9.45 12.25H4.55C3.56991 12.25 3.07986 12.25 2.70552 12.0593C2.37623 11.8915 2.10852 11.6238 1.94074 11.2945C1.75 10.9201 1.75 10.4301 1.75 9.45V4.55C1.75 3.56991 1.75 3.07986 1.94074 2.70552C2.10852 2.37623 2.37623 2.10852 2.70552 1.94074C3.07986 1.75 3.56991 1.75 4.55 1.75C5.53009 1.75 9.45 1.75 9.45 1.75C10.4301 1.75 10.9201 1.75 11.2945 1.94074C11.6238 2.10852 11.8915 2.37623 12.0593 2.70552C12.25 3.07986 12.25 3.56991 12.25 4.55V9.45M6.125 4.95833C6.125 5.60267 5.60267 6.125 4.95833 6.125C4.314 6.125 3.79167 5.60267 3.79167 4.95833C3.79167 4.314 4.314 3.79167 4.95833 3.79167C5.60267 3.79167 6.125 4.314 6.125 4.95833Z" stroke="white" stroke-width="1.5" stroke-linecap="round" stroke-linejoin="round"/>
</svg>
