<svg width="14" height="14" viewBox="0 0 14 14" fill="none" xmlns="http://www.w3.org/2000/svg">
<path d="M3 7.95C3 7.95 3.45 7.5 4.8 7.5C6.15 7.5 7.05 8.4 8.4 8.4C9.75 8.4 10.2 7.95 10.2 7.95V3.45C10.2 3.45 9.75 3.9 8.4 3.9C7.05 3.9 6.15 3 4.8 3C3.45 3 3 3.45 3 3.45V7.95Z" fill="white"/>
<path d="M3 3.45C3 3.45 3.45 3 4.8 3C6.15 3 7.05 3.9 8.4 3.9C9.75 3.9 10.2 3.45 10.2 3.45V7.95C10.2 7.95 9.75 8.4 8.4 8.4C7.05 8.4 6.15 7.5 4.8 7.5C3.45 7.5 3 7.95 3 7.95V3.45ZM3 3.45V12" stroke="white" stroke-width="1.5" stroke-linecap="round" stroke-linejoin="round"/>
</svg>
