<svg width="18" height="16" viewBox="0 0 18 16" fill="none" xmlns="http://www.w3.org/2000/svg">
<path d="M16.001 0H1.55772C0.923629 0 0.41283 0.510798 0.41283 1.14489V10.7972C0.41283 11.4313 0.923629 11.9421 1.55772 11.9421H3.54807V14.9717C3.54807 15.8876 4.65774 16.3455 5.29183 15.6938L9.04356 11.9421H16.001C16.6351 11.9421 17.1459 11.4313 17.1459 10.7972V1.14489C17.1459 0.510798 16.6351 0 16.001 0ZM7.22935 7.73243C7.01798 8.06709 6.77139 8.38414 6.5248 8.64834C6.43673 8.73641 6.29582 8.75403 6.20775 8.64834L5.6265 8.03186C5.55604 7.94379 5.53843 7.8205 5.6265 7.73243C5.67934 7.67959 5.71456 7.62675 5.76741 7.55629C6.04923 7.1864 6.33105 6.65799 6.38389 6.16481C6.014 6.14719 5.59127 6.07674 5.34468 5.75969C5.08047 5.44264 4.95717 5.09037 4.95717 4.72048C4.95717 4.31536 5.1157 3.96309 5.43274 3.64604C5.74979 3.329 6.11968 3.17047 6.54241 3.17047C6.96514 3.17047 7.33503 3.34661 7.65207 3.68127C7.96912 4.01593 8.12765 4.45627 8.12765 4.98469C8.09242 5.91821 7.8106 6.83413 7.22935 7.73243ZM11.7561 7.73243C11.5447 8.06709 11.2981 8.38414 11.0515 8.64834C10.9635 8.73641 10.8225 8.75403 10.7345 8.64834L10.1532 8.03186C10.0828 7.94379 10.0652 7.8205 10.1532 7.73243C10.2061 7.67959 10.2413 7.62675 10.2941 7.55629C10.576 7.1864 10.8578 6.65799 10.9106 6.16481C10.5407 6.14719 10.118 6.07674 9.87141 5.75969C9.6072 5.44264 9.4839 5.09037 9.4839 4.72048C9.4839 4.31536 9.64243 3.96309 9.95947 3.64604C10.2765 3.329 10.6464 3.17047 11.0691 3.17047C11.4919 3.17047 11.8618 3.34661 12.1788 3.68127C12.4959 4.01593 12.6544 4.45627 12.6544 4.98469C12.6191 5.91821 12.3373 6.83413 11.7561 7.73243Z" fill="#52BD97"/>
</svg>
