<svg width="14" height="14" viewBox="0 0 14 14" fill="none" xmlns="http://www.w3.org/2000/svg">
<path d="M12.25 3.79167C12.25 4.91925 11.3359 5.83333 10.2083 5.83333C9.08075 5.83333 8.16667 4.91925 8.16667 3.79167C8.16667 2.66408 9.08075 1.75 10.2083 1.75C11.3359 1.75 12.25 2.66408 12.25 3.79167Z" fill="white"/>
<path d="M8.77946 5.25H3.20833C2.40292 5.25 1.75 4.59708 1.75 3.79167C1.75 2.98625 2.40292 2.33333 3.20833 2.33333H8.77946M12.25 3.79167C12.25 4.91925 11.3359 5.83333 10.2083 5.83333C9.08075 5.83333 8.16667 4.91925 8.16667 3.79167C8.16667 2.66408 9.08075 1.75 10.2083 1.75C11.3359 1.75 12.25 2.66408 12.25 3.79167Z" stroke="white" stroke-width="1.5" stroke-linecap="round" stroke-linejoin="round"/>
<g opacity="0.5">
<path d="M1.75 10.2083C1.75 11.3359 2.66408 12.25 3.79167 12.25C4.34797 12.25 4.8523 12.0275 5.22054 11.6667C5.5987 11.2961 5.83333 10.7796 5.83333 10.2083C5.83333 9.63705 5.5987 9.12057 5.22054 8.75C4.8523 8.38915 4.34797 8.16667 3.79167 8.16667C2.66408 8.16667 1.75 9.08075 1.75 10.2083Z" fill="white"/>
<path d="M5.22054 11.6667H10.7917C11.5971 11.6667 12.25 11.0137 12.25 10.2083C12.25 9.40292 11.5971 8.75 10.7917 8.75H5.22054M5.22054 11.6667C4.8523 12.0275 4.34797 12.25 3.79167 12.25M5.22054 11.6667C5.5987 11.2961 5.83333 10.7796 5.83333 10.2083M5.22054 8.75C5.5987 9.12057 5.83333 9.63705 5.83333 10.2083M5.22054 8.75C4.8523 8.38915 4.34797 8.16667 3.79167 8.16667M3.79167 12.25C2.66408 12.25 1.75 11.3359 1.75 10.2083C1.75 9.08075 2.66408 8.16667 3.79167 8.16667M3.79167 12.25C4.91925 12.25 5.83333 11.3359 5.83333 10.2083M5.83333 10.2083C5.83333 9.08075 4.91925 8.16667 3.79167 8.16667" stroke="white" stroke-width="1.5" stroke-linecap="round" stroke-linejoin="round"/>
</g>
</svg>
