<svg width="24" height="24" viewBox="0 0 24 24" fill="none" xmlns="http://www.w3.org/2000/svg">
<path d="M6.9 13.4444V7.77778C6.9 6.8573 7.66112 6.11111 8.6 6.11111C9.53888 6.11111 10.3 6.8573 10.3 7.77778V6.66667C10.3 5.74619 11.0611 5 12 5C12.9389 5 13.7 5.74619 13.7 6.66667V7.77778C13.7 6.8573 14.4611 6.11111 15.4 6.11111C16.3389 6.11111 17.1 6.8573 17.1 7.77778V9.11111C17.1 8.19064 17.8611 7.44444 18.8 7.44444C19.7389 7.44444 20.5 8.19064 20.5 9.11111V13.6667C20.5 18.269 16.6944 22 12 22C7.30558 22 3.5 18.269 3.5 13.6667V13.4444C3.5 12.524 4.26112 11.7778 5.2 11.7778C6.13888 11.7778 6.9 12.524 6.9 13.4444Z" fill="white"/>
<path d="M6.9 13.4444V14.2222M6.9 13.4444V7.77778C6.9 6.8573 7.66112 6.11111 8.6 6.11111C9.53888 6.11111 10.3 6.8573 10.3 7.77778M6.9 13.4444C6.9 12.524 6.13888 11.7778 5.2 11.7778C4.26112 11.7778 3.5 12.524 3.5 13.4444V13.6667C3.5 18.269 7.30558 22 12 22C16.6944 22 20.5 18.269 20.5 13.6667V9.11111C20.5 8.19064 19.7389 7.44444 18.8 7.44444C17.8611 7.44444 17.1 8.19064 17.1 9.11111M10.3 7.77778V10.8889M10.3 7.77778V6.66667C10.3 5.74619 11.0611 5 12 5C12.9389 5 13.7 5.74619 13.7 6.66667M17.1 9.11111C17.1 8.98094 17.1 7.77778 17.1 7.77778M17.1 9.11111C17.1 10.1959 17.1 10.8889 17.1 10.8889M17.1 9.11111V7.77778M13.7 6.66667C13.7 7.58715 13.7 7.77778 13.7 7.77778M13.7 6.66667V7.77778M13.7 7.77778V10.8889M13.7 7.77778C13.7 6.8573 14.4611 6.11111 15.4 6.11111C16.3389 6.11111 17.1 6.8573 17.1 7.77778" stroke="black" stroke-linecap="round" stroke-linejoin="round"/>
</svg>
