<svg width="21" height="16" viewBox="0 0 21 16" fill="none" xmlns="http://www.w3.org/2000/svg">
<path d="M0.121576 1.71429V3.42857C0.121576 4.06071 0.632291 4.57143 1.26443 4.57143H1.83586H3.55015V1.71429C3.55015 0.767857 2.78229 0 1.83586 0C0.889433 0 0.121576 0.767857 0.121576 1.71429ZM4.12158 0C4.47872 0.478571 4.693 1.07143 4.693 1.71429V12.5714C4.693 13.8321 5.718 14.8571 6.97872 14.8571C8.23943 14.8571 9.26443 13.8321 9.26443 12.5714V12.3821C9.26443 11.225 10.2037 10.2857 11.3609 10.2857H17.2644V3.42857C17.2644 1.53571 15.7287 0 13.8359 0H4.12158ZM16.693 16C18.9037 16 20.693 14.2107 20.693 12C20.693 11.6857 20.4359 11.4286 20.1216 11.4286H11.3609C10.8359 11.4286 10.4073 11.8536 10.4073 12.3821V12.5714C10.4073 14.4643 8.87158 16 6.97872 16H13.2644H16.693Z" fill="white"/>
</svg>
